<svg width="843" height="89" viewBox="0 0 843 89" fill="none" xmlns="http://www.w3.org/2000/svg">
<path d="M32.632 0.359997C42.808 0.359997 50.936 3.656 57.016 10.248C63.096 16.776 66.136 25.064 66.136 35.112C66.136 45.224 63.096 53.576 57.016 60.168C50.936 66.696 42.808 69.96 32.632 69.96C23.48 69.96 16.056 67.56 10.36 62.76C4.664 57.896 1.304 51.24 0.28 42.792H12.664C13.432 48.04 15.544 52.104 19 54.984C22.52 57.8 27 59.208 32.44 59.208C38.264 59.208 42.968 57.576 46.552 54.312C50.2 50.984 52.472 46.376 53.368 40.488H27.16V29.736H53.368C52.472 23.848 50.2 19.272 46.552 16.008C42.968 12.744 38.264 11.112 32.44 11.112C27 11.112 22.52 12.52 19 15.336C15.544 18.152 13.432 22.184 12.664 27.432H0.28C1.304 19.048 4.664 12.456 10.36 7.65599C16.056 2.792 23.48 0.359997 32.632 0.359997ZM123.438 20.808V31.56H105.294V69H92.9103V31.56H74.7663V20.808H123.438ZM132.806 63.24C127.878 58.76 125.414 52.648 125.414 44.904C125.414 37.16 127.878 31.048 132.806 26.568C137.734 22.088 144.102 19.848 151.91 19.848C159.654 19.848 165.99 22.088 170.918 26.568C175.846 31.048 178.31 37.16 178.31 44.904C178.31 52.648 175.846 58.76 170.918 63.24C165.99 67.72 159.654 69.96 151.91 69.96C144.102 69.96 137.734 67.72 132.806 63.24ZM141.542 34.44C139.046 37 137.798 40.488 137.798 44.904C137.798 49.32 139.046 52.808 141.542 55.368C144.038 57.928 147.494 59.208 151.91 59.208C156.326 59.208 159.782 57.928 162.278 55.368C164.774 52.808 166.022 49.32 166.022 44.904C166.022 40.488 164.774 37 162.278 34.44C159.782 31.88 156.326 30.6 151.91 30.6C147.494 30.6 144.038 31.88 141.542 34.44ZM216.843 35.112C216.843 25.064 219.883 16.776 225.963 10.248C232.043 3.656 240.171 0.359997 250.347 0.359997C259.499 0.359997 266.923 2.792 272.619 7.65599C278.315 12.456 281.675 19.048 282.699 27.432H270.315C269.547 22.184 267.403 18.152 263.883 15.336C260.427 12.52 255.979 11.112 250.539 11.112C243.819 11.112 238.571 13.256 234.795 17.544C231.083 21.768 229.227 27.624 229.227 35.112C229.227 42.6 231.083 48.488 234.795 52.776C238.571 57.064 243.819 59.208 250.539 59.208C255.979 59.208 260.427 57.8 263.883 54.984C267.403 52.104 269.547 48.04 270.315 42.792H282.699C281.675 51.24 278.315 57.896 272.619 62.76C266.923 67.56 259.499 69.96 250.347 69.96C240.171 69.96 232.043 66.696 225.963 60.168C219.883 53.576 216.843 45.224 216.843 35.112ZM331.214 20.808H345.038L323.438 67.08V81.384C323.438 86.312 320.91 88.68 315.854 88.488L294.254 87.72V76.968L311.15 77.544V67.08L289.454 20.808H303.278L315.662 51.72V57.768H318.926V51.72L331.214 20.808ZM399.148 20.808V69H386.764V31.56H366.124V69H353.74V20.808H399.148ZM409.664 44.328C409.664 36.776 411.936 30.824 416.48 26.472C421.024 22.056 426.944 19.848 434.24 19.848C441.536 19.848 447.392 21.96 451.808 26.184C456.288 30.408 458.528 36.136 458.528 43.368V47.4H421.376C421.504 51.176 422.72 54.216 425.024 56.52C427.392 58.76 430.944 59.88 435.68 59.88C442.528 59.88 446.592 57.288 447.872 52.104H460.256C459.424 56.52 456.928 60.616 452.768 64.392C448.608 68.104 442.912 69.96 435.68 69.96C427.168 69.96 420.704 67.528 416.288 62.664C411.872 57.8 409.664 51.688 409.664 44.328ZM421.376 39.912H446.816C446.816 37.032 445.76 34.664 443.648 32.808C441.6 30.952 438.464 30.024 434.24 30.024C430.016 30.024 426.816 30.984 424.64 32.904C422.464 34.76 421.376 37.096 421.376 39.912ZM468.584 20.808H480.968V25.416L478.76 32.808H481.928C484.808 24.168 491.208 19.848 501.128 19.848C507.848 19.848 513.128 22.248 516.968 27.048C520.872 31.784 522.824 37.768 522.824 45C522.824 52.168 520.872 58.12 516.968 62.856C513.128 67.592 507.848 69.96 501.128 69.96C491.208 69.96 484.808 65.672 481.928 57.096H478.76L480.968 64.392V86.952H468.584V20.808ZM480.968 45C480.968 49.8 482.28 53.384 484.904 55.752C487.592 58.056 491.24 59.208 495.848 59.208C500.456 59.208 504.04 58.056 506.6 55.752C509.16 53.384 510.44 49.8 510.44 45C510.44 40.136 509.16 36.52 506.6 34.152C504.04 31.784 500.456 30.6 495.848 30.6C491.24 30.6 487.592 31.784 484.904 34.152C482.28 36.52 480.968 40.136 480.968 45ZM534.325 39.048H583.765V48.552H534.325V39.048ZM643.097 69H629.465L616.505 49.8C615.481 49.928 614.617 49.992 613.913 49.992H609.593V69H597.209V20.808H609.593V39.144H613.625L624.377 24.648C626.361 22.088 629.337 20.808 633.305 20.808H641.465V31.56H633.689L625.529 42.504L643.097 69ZM651.771 69V20.808H672.219C678.747 20.808 683.707 21.64 687.099 23.304C690.491 24.968 692.187 27.944 692.187 32.232C692.187 38.44 688.827 41.8 682.107 42.312V45.576C691.195 45.704 695.739 49.32 695.739 56.424C695.739 64.808 689.083 69 675.771 69H651.771ZM663.483 39.816H672.219C675.419 39.816 677.595 39.528 678.747 38.952C679.899 38.312 680.475 36.872 680.475 34.632C680.475 32.584 679.867 31.24 678.651 30.6C677.435 29.96 675.291 29.64 672.219 29.64H663.483V39.816ZM663.483 60.168H675.771C678.779 60.168 680.891 59.784 682.107 59.016C683.387 58.248 684.027 56.744 684.027 54.504C684.027 52.2 683.387 50.664 682.107 49.896C680.891 49.064 678.779 48.648 675.771 48.648H663.483V60.168ZM757.812 69H745.524V30.792L747.732 24.072H744.564L729.78 69H705.396V20.808H717.78V58.728L715.572 65.832H718.74L733.524 20.808H757.812V69ZM767.53 50.376H779.242C779.242 54.536 780.074 57.384 781.738 58.92C783.402 60.392 786.25 61.128 790.282 61.128C796.426 61.128 799.498 58.888 799.498 54.408C799.498 52.232 798.858 50.696 797.578 49.8C796.298 48.904 794.346 48.456 791.722 48.456H786.346V39.528H791.722C796.266 39.528 798.538 37.736 798.538 34.152C798.538 32.232 797.866 30.856 796.522 30.024C795.242 29.128 793.034 28.68 789.898 28.68C786.122 28.68 783.562 29.224 782.218 30.312C780.874 31.4 780.202 33.352 780.202 36.168H768.49C768.49 30.856 770.282 26.824 773.866 24.072C777.45 21.256 782.794 19.848 789.898 19.848C796.426 19.848 801.45 21.032 804.97 23.4C808.49 25.768 810.25 28.904 810.25 32.808C810.25 38.76 806.922 41.96 800.266 42.408V45.576C803.402 45.768 805.994 46.696 808.042 48.36C810.154 50.024 811.21 52.52 811.21 55.848C811.21 60.2 809.386 63.656 805.738 66.216C802.09 68.712 796.938 69.96 790.282 69.96C775.114 69.96 767.53 63.432 767.53 50.376ZM827.091 1.32H839.475L837.363 44.808H829.203L827.091 1.32ZM833.235 69.96C830.419 69.96 828.115 69.064 826.323 67.272C824.595 65.416 823.731 63.112 823.731 60.36C823.731 57.672 824.595 55.432 826.323 53.64C828.115 51.848 830.419 50.952 833.235 50.952C835.987 50.952 838.259 51.848 840.051 53.64C841.907 55.432 842.835 57.672 842.835 60.36C842.835 63.112 841.907 65.416 840.051 67.272C838.259 69.064 835.987 69.96 833.235 69.96Z" fill="black"/>
</svg>
